<svg width="120" height="56" viewBox="0 0 120 56" fill="none" xmlns="http://www.w3.org/2000/svg">
<path d="M17.2534 0.928786L19.4112 16.9513L12.7075 35.729L3.54381 39.9493L17.2534 0.928786Z" fill="#FF6F61"/>
<path d="M17.2794 0.816585L15.755 19.2424L25.3335 48.5128L33.0648 48.5128L17.2794 0.816585Z" fill="#FF6F61"/>
<path d="M18.8281 34.3643L19.6274 36.7399L1.82891 44.9399L2.96667 41.7405L18.8281 34.3643Z" fill="#FF6F61"/>
<path d="M20.007 38.008L20.7686 40.4011L3.2538 48.5062L0.568732 48.5062L1.2263 46.6679L20.007 38.008Z" fill="#FF6F61"/>
<path d="M36.568 55.552L49.672 26.128H53.8L40.984 55.552H36.568ZM41.464 46.144L31.912 26.128H36.952L44.968 43.888L41.464 46.144ZM60.5268 17.392H64.9908V26.224H70.4628V29.728H64.9908V46H60.5268V29.728H56.8788V26.224H60.5268V17.392ZM74.1288 35.872C74.1288 33.888 74.5928 32.096 75.5208 30.496C76.4808 28.896 77.7928 27.632 79.4568 26.704C81.1208 25.776 83.0088 25.312 85.1208 25.312C87.2968 25.312 89.2008 25.776 90.8328 26.704C92.4648 27.632 93.7288 28.896 94.6248 30.496C95.5208 32.096 95.9688 33.888 95.9688 35.872C95.9688 37.856 95.5208 39.664 94.6248 41.296C93.7288 42.896 92.4488 44.16 90.7848 45.088C89.1528 46.016 87.2488 46.48 85.0728 46.48C82.9608 46.48 81.0728 46.048 79.4088 45.184C77.7768 44.288 76.4808 43.056 75.5208 41.488C74.5928 39.888 74.1288 38.016 74.1288 35.872ZM78.5928 35.92C78.5928 37.2 78.8808 38.368 79.4568 39.424C80.0328 40.448 80.8008 41.264 81.7608 41.872C82.7528 42.48 83.8408 42.784 85.0248 42.784C86.2728 42.784 87.3768 42.48 88.3368 41.872C89.3288 41.264 90.0968 40.448 90.6408 39.424C91.1848 38.368 91.4568 37.2 91.4568 35.92C91.4568 34.64 91.1848 33.488 90.6408 32.464C90.0968 31.408 89.3288 30.576 88.3368 29.968C87.3768 29.328 86.2728 29.008 85.0248 29.008C83.8088 29.008 82.7048 29.328 81.7128 29.968C80.7528 30.608 79.9848 31.456 79.4088 32.512C78.8648 33.536 78.5928 34.672 78.5928 35.92ZM105.997 26.128L106.429 31.888L106.189 31.12C106.701 29.904 107.437 28.88 108.397 28.048C109.389 27.184 110.413 26.528 111.469 26.08C112.557 25.6 113.501 25.36 114.301 25.36L114.061 29.776C112.557 29.68 111.229 29.968 110.077 30.64C108.957 31.312 108.061 32.208 107.389 33.328C106.749 34.448 106.429 35.648 106.429 36.928V46H102.013V26.128H105.997Z" fill="#11161E"/>
</svg>
